<svg xmlns="http://www.w3.org/2000/svg" viewBox="0 0 64 64" role="img" aria-label="Crusher UI Kit">
  <defs>
    <linearGradient id="bg" x1="8" y1="6" x2="56" y2="58" gradientUnits="userSpaceOnUse">
      <stop offset="0" stop-color="#10182b"/>
      <stop offset="1" stop-color="#09101d"/>
    </linearGradient>
    <linearGradient id="accent" x1="14" y1="12" x2="52" y2="52" gradientUnits="userSpaceOnUse">
      <stop offset="0" stop-color="#38bdf8"/>
      <stop offset="0.55" stop-color="#3b82f6"/>
      <stop offset="1" stop-color="#f97316"/>
    </linearGradient>
    <linearGradient id="gloss" x1="18" y1="10" x2="42" y2="28" gradientUnits="userSpaceOnUse">
      <stop offset="0" stop-color="#ffffff" stop-opacity="0.26"/>
      <stop offset="1" stop-color="#ffffff" stop-opacity="0"/>
    </linearGradient>
  </defs>
  <rect x="4" y="4" width="56" height="56" rx="18" fill="url(#bg)"/>
  <rect x="7.5" y="7.5" width="49" height="49" rx="15" fill="none" stroke="rgba(255,255,255,0.12)"/>
  <path d="M41.5 18.5c-2.4-2.7-5.9-4.5-10.1-4.5-8.6 0-15.4 7.1-15.4 18s6.8 18 15.4 18c4.2 0 7.7-1.8 10.1-4.5" fill="none" stroke="url(#accent)" stroke-linecap="round" stroke-width="7.5"/>
  <path d="M17 12.5c6.6-4.5 14.2-5.7 22.7-3.2 2.6.8 5.3 2.2 7.8 4.4" fill="none" stroke="url(#gloss)" stroke-linecap="round" stroke-width="3.5"/>
  <circle cx="46.5" cy="32" r="3.2" fill="#f8fafc" fill-opacity="0.96"/>
</svg>
